<?xml version="1.0" encoding="UTF-8" standalone="no"?>
<!DOCTYPE svg PUBLIC "-//W3C//DTD SVG 1.1//EN"
 "http://www.w3.org/Graphics/SVG/1.1/DTD/svg11.dtd">
<!-- Generated by graphviz version 2.44.0 (20200408.0750)
 -->
<!-- Title: Database Structure Pages: 1 -->
<svg width="712pt" height="525pt"
 viewBox="0.00 0.00 712.29 524.50" xmlns="http://www.w3.org/2000/svg" xmlns:xlink="http://www.w3.org/1999/xlink">
<g id="graph0" class="graph" transform="scale(1 1) rotate(0) translate(4 520.5)">
<title>Database Structure</title>
<polygon fill="white" stroke="transparent" points="-4,4 -4,-520.5 708.29,-520.5 708.29,4 -4,4"/>
<text text-anchor="middle" x="352.14" y="-501.3" font-family="Helvetica,sans-Serif" font-size="14.00">ER Diagram: todolist</text>
<!-- privileges -->
<g id="node1" class="node">
<title>privileges</title>
<polygon fill="#dddddd" stroke="transparent" points="519.29,-260.5 519.29,-281.5 629.29,-281.5 629.29,-260.5 519.29,-260.5"/>
<polygon fill="none" stroke="black" points="519.29,-260.5 519.29,-281.5 629.29,-281.5 629.29,-260.5 519.29,-260.5"/>
<text text-anchor="start" x="547.29" y="-267.3" font-family="Times,serif" font-size="14.00">privileges</text>
<polygon fill="none" stroke="black" points="519.29,-239.5 519.29,-260.5 629.29,-260.5 629.29,-239.5 519.29,-239.5"/>
<text text-anchor="start" x="522.29" y="-247.3" font-family="Times,serif" font-size="14.00">privilege_id:</text>
<text text-anchor="start" x="592.29" y="-247.3" font-family="Helvetica,sans-Serif" font-style="oblique" font-size="10.00">BIGINT</text>
<polygon fill="none" stroke="black" points="519.29,-218.5 519.29,-239.5 629.29,-239.5 629.29,-218.5 519.29,-218.5"/>
<text text-anchor="start" x="532.79" y="-226.3" font-family="Times,serif" font-size="14.00">name:</text>
<text text-anchor="start" x="566.79" y="-226.3" font-family="Helvetica,sans-Serif" font-style="oblique" font-size="10.00">VARCHAR</text>
</g>
<!-- roles -->
<g id="node2" class="node">
<title>roles</title>
<polygon fill="#dddddd" stroke="transparent" points="530.29,-349.5 530.29,-370.5 619.29,-370.5 619.29,-349.5 530.29,-349.5"/>
<polygon fill="none" stroke="black" points="530.29,-349.5 530.29,-370.5 619.29,-370.5 619.29,-349.5 530.29,-349.5"/>
<text text-anchor="start" x="561.29" y="-356.3" font-family="Times,serif" font-size="14.00">roles</text>
<polygon fill="none" stroke="black" points="530.29,-328.5 530.29,-349.5 619.29,-349.5 619.29,-328.5 530.29,-328.5"/>
<text text-anchor="start" x="536.29" y="-336.3" font-family="Times,serif" font-size="14.00">role_id:</text>
<text text-anchor="start" x="579.29" y="-336.3" font-family="Helvetica,sans-Serif" font-style="oblique" font-size="10.00">BIGINT</text>
<polygon fill="none" stroke="black" points="530.29,-307.5 530.29,-328.5 619.29,-328.5 619.29,-307.5 530.29,-307.5"/>
<text text-anchor="start" x="533.29" y="-315.3" font-family="Times,serif" font-size="14.00">name:</text>
<text text-anchor="start" x="567.29" y="-315.3" font-family="Helvetica,sans-Serif" font-style="oblique" font-size="10.00">VARCHAR</text>
</g>
<!-- roles_privileges -->
<g id="node3" class="node">
<title>roles_privileges</title>
<polygon fill="#dddddd" stroke="transparent" points="79.29,-315.5 79.29,-336.5 189.29,-336.5 189.29,-315.5 79.29,-315.5"/>
<polygon fill="none" stroke="black" points="79.29,-315.5 79.29,-336.5 189.29,-336.5 189.29,-315.5 79.29,-315.5"/>
<text text-anchor="start" x="90.79" y="-322.3" font-family="Times,serif" font-size="14.00">roles_privileges</text>
<polygon fill="none" stroke="black" points="79.29,-294.5 79.29,-315.5 189.29,-315.5 189.29,-294.5 79.29,-294.5"/>
<text text-anchor="start" x="95.79" y="-302.3" font-family="Times,serif" font-size="14.00">role_id:</text>
<text text-anchor="start" x="138.79" y="-302.3" font-family="Helvetica,sans-Serif" font-style="oblique" font-size="10.00">BIGINT</text>
<polygon fill="none" stroke="black" points="79.29,-273.5 79.29,-294.5 189.29,-294.5 189.29,-273.5 79.29,-273.5"/>
<text text-anchor="start" x="82.29" y="-281.3" font-family="Times,serif" font-size="14.00">privilege_id:</text>
<text text-anchor="start" x="152.29" y="-281.3" font-family="Helvetica,sans-Serif" font-style="oblique" font-size="10.00">BIGINT</text>
</g>
<!-- roles_privileges&#45;&gt;privileges -->
<g id="edge1" class="edge">
<title>roles_privileges:privilege_id&#45;&gt;privileges:privilege_id</title>
<path fill="none" stroke="#444444" stroke-dasharray="5,2" d="M190.29,-283.5C333.41,-283.5 370.03,-251.08 508.16,-249.56"/>
<polygon fill="#444444" stroke="#444444" points="518.3,-253 508.29,-249.55 518.27,-246 518.3,-253"/>
</g>
<!-- roles_privileges&#45;&gt;roles -->
<g id="edge2" class="edge">
<title>roles_privileges:role_id&#45;&gt;roles:role_id</title>
<path fill="none" stroke="#444444" stroke-dasharray="5,2" d="M190.29,-304.5C338.31,-304.5 376.18,-336.99 519.25,-338.45"/>
<polygon fill="#444444" stroke="#444444" points="529.27,-342 519.29,-338.45 529.3,-335 529.27,-342"/>
</g>
<!-- todos -->
<g id="node4" class="node">
<title>todos</title>
<polygon fill="#dddddd" stroke="transparent" points="74.29,-468.5 74.29,-489.5 195.29,-489.5 195.29,-468.5 74.29,-468.5"/>
<polygon fill="none" stroke="black" points="74.29,-468.5 74.29,-489.5 195.29,-489.5 195.29,-468.5 74.29,-468.5"/>
<text text-anchor="start" x="119.79" y="-475.3" font-family="Times,serif" font-size="14.00">todos</text>
<polygon fill="none" stroke="black" points="74.29,-447.5 74.29,-468.5 195.29,-468.5 195.29,-447.5 74.29,-447.5"/>
<text text-anchor="start" x="110.29" y="-455.3" font-family="Times,serif" font-size="14.00">id:</text>
<text text-anchor="start" x="125.29" y="-455.3" font-family="Helvetica,sans-Serif" font-style="oblique" font-size="10.00">BIGINT</text>
<polygon fill="none" stroke="black" points="74.29,-426.5 74.29,-447.5 195.29,-447.5 195.29,-426.5 74.29,-426.5"/>
<text text-anchor="start" x="78.29" y="-434.3" font-family="Times,serif" font-size="14.00">description:</text>
<text text-anchor="start" x="142.29" y="-434.3" font-family="Helvetica,sans-Serif" font-style="oblique" font-size="10.00">VARCHAR</text>
<polygon fill="none" stroke="black" points="74.29,-405.5 74.29,-426.5 195.29,-426.5 195.29,-405.5 74.29,-405.5"/>
<text text-anchor="start" x="103.79" y="-413.3" font-family="Times,serif" font-size="14.00">is_done:</text>
<text text-anchor="start" x="149.79" y="-413.3" font-family="Helvetica,sans-Serif" font-style="oblique" font-size="10.00">BIT</text>
<polygon fill="none" stroke="black" points="74.29,-384.5 74.29,-405.5 195.29,-405.5 195.29,-384.5 74.29,-384.5"/>
<text text-anchor="start" x="77.29" y="-392.3" font-family="Times,serif" font-size="14.00">target_date:</text>
<text text-anchor="start" x="141.29" y="-392.3" font-family="Helvetica,sans-Serif" font-style="oblique" font-size="10.00">DATETIME</text>
<polygon fill="none" stroke="black" points="74.29,-363.5 74.29,-384.5 195.29,-384.5 195.29,-363.5 74.29,-363.5"/>
<text text-anchor="start" x="81.79" y="-371.3" font-family="Times,serif" font-size="14.00">username:</text>
<text text-anchor="start" x="138.79" y="-371.3" font-family="Helvetica,sans-Serif" font-style="oblique" font-size="10.00">VARCHAR</text>
</g>
<!-- user_roles -->
<g id="node5" class="node">
<title>user_roles</title>
<polygon fill="#dddddd" stroke="transparent" points="92.29,-216.5 92.29,-237.5 176.29,-237.5 176.29,-216.5 92.29,-216.5"/>
<polygon fill="none" stroke="black" points="92.29,-216.5 92.29,-237.5 176.29,-237.5 176.29,-216.5 92.29,-216.5"/>
<text text-anchor="start" x="106.29" y="-223.3" font-family="Times,serif" font-size="14.00">user_roles</text>
<polygon fill="none" stroke="black" points="92.29,-195.5 92.29,-216.5 176.29,-216.5 176.29,-195.5 92.29,-195.5"/>
<text text-anchor="start" x="95.29" y="-203.3" font-family="Times,serif" font-size="14.00">user_id:</text>
<text text-anchor="start" x="139.29" y="-203.3" font-family="Helvetica,sans-Serif" font-style="oblique" font-size="10.00">BIGINT</text>
<polygon fill="none" stroke="black" points="92.29,-174.5 92.29,-195.5 176.29,-195.5 176.29,-174.5 92.29,-174.5"/>
<text text-anchor="start" x="95.79" y="-182.3" font-family="Times,serif" font-size="14.00">role_id:</text>
<text text-anchor="start" x="138.79" y="-182.3" font-family="Helvetica,sans-Serif" font-style="oblique" font-size="10.00">BIGINT</text>
</g>
<!-- user_roles&#45;&gt;roles -->
<g id="edge3" class="edge">
<title>user_roles:role_id&#45;&gt;roles:role_id</title>
<path fill="none" stroke="#444444" stroke-dasharray="5,2" d="M177.29,-184.5C344.55,-184.5 358.03,-332.25 518.98,-338.31"/>
<polygon fill="#444444" stroke="#444444" points="529.22,-342 519.29,-338.31 529.35,-335 529.22,-342"/>
</g>
<!-- users -->
<g id="node6" class="node">
<title>users</title>
<polygon fill="#dddddd" stroke="transparent" points="516.29,-171.5 516.29,-192.5 633.29,-192.5 633.29,-171.5 516.29,-171.5"/>
<polygon fill="none" stroke="black" points="516.29,-171.5 516.29,-192.5 633.29,-192.5 633.29,-171.5 516.29,-171.5"/>
<text text-anchor="start" x="560.79" y="-178.3" font-family="Times,serif" font-size="14.00">users</text>
<polygon fill="none" stroke="black" points="516.29,-150.5 516.29,-171.5 633.29,-171.5 633.29,-150.5 516.29,-150.5"/>
<text text-anchor="start" x="535.79" y="-158.3" font-family="Times,serif" font-size="14.00">user_id:</text>
<text text-anchor="start" x="579.79" y="-158.3" font-family="Helvetica,sans-Serif" font-style="oblique" font-size="10.00">BIGINT</text>
<polygon fill="none" stroke="black" points="516.29,-129.5 516.29,-150.5 633.29,-150.5 633.29,-129.5 516.29,-129.5"/>
<text text-anchor="start" x="532.79" y="-137.3" font-family="Times,serif" font-size="14.00">email:</text>
<text text-anchor="start" x="567.79" y="-137.3" font-family="Helvetica,sans-Serif" font-style="oblique" font-size="10.00">VARCHAR</text>
<polygon fill="none" stroke="black" points="516.29,-108.5 516.29,-129.5 633.29,-129.5 633.29,-108.5 516.29,-108.5"/>
<text text-anchor="start" x="531.79" y="-116.3" font-family="Times,serif" font-size="14.00">phone:</text>
<text text-anchor="start" x="568.79" y="-116.3" font-family="Helvetica,sans-Serif" font-style="oblique" font-size="10.00">VARCHAR</text>
<polygon fill="none" stroke="black" points="516.29,-87.5 516.29,-108.5 633.29,-108.5 633.29,-87.5 516.29,-87.5"/>
<text text-anchor="start" x="543.79" y="-95.3" font-family="Times,serif" font-size="14.00">enabled:</text>
<text text-anchor="start" x="589.79" y="-95.3" font-family="Helvetica,sans-Serif" font-style="oblique" font-size="10.00">BIT</text>
<polygon fill="none" stroke="black" points="516.29,-66.5 516.29,-87.5 633.29,-87.5 633.29,-66.5 516.29,-66.5"/>
<text text-anchor="start" x="519.29" y="-74.3" font-family="Times,serif" font-size="14.00">first_name:</text>
<text text-anchor="start" x="581.29" y="-74.3" font-family="Helvetica,sans-Serif" font-style="oblique" font-size="10.00">VARCHAR</text>
<polygon fill="none" stroke="black" points="516.29,-45.5 516.29,-66.5 633.29,-66.5 633.29,-45.5 516.29,-45.5"/>
<text text-anchor="start" x="520.29" y="-53.3" font-family="Times,serif" font-size="14.00">last_name:</text>
<text text-anchor="start" x="580.29" y="-53.3" font-family="Helvetica,sans-Serif" font-style="oblique" font-size="10.00">VARCHAR</text>
<polygon fill="none" stroke="black" points="516.29,-24.5 516.29,-45.5 633.29,-45.5 633.29,-24.5 516.29,-24.5"/>
<text text-anchor="start" x="522.79" y="-32.3" font-family="Times,serif" font-size="14.00">password:</text>
<text text-anchor="start" x="577.79" y="-32.3" font-family="Helvetica,sans-Serif" font-style="oblique" font-size="10.00">VARCHAR</text>
<polygon fill="none" stroke="black" points="516.29,-3.5 516.29,-24.5 633.29,-24.5 633.29,-3.5 516.29,-3.5"/>
<text text-anchor="start" x="521.79" y="-11.3" font-family="Times,serif" font-size="14.00">username:</text>
<text text-anchor="start" x="578.79" y="-11.3" font-family="Helvetica,sans-Serif" font-style="oblique" font-size="10.00">VARCHAR</text>
</g>
<!-- user_roles&#45;&gt;users -->
<g id="edge4" class="edge">
<title>user_roles:user_id&#45;&gt;users:user_id</title>
<path fill="none" stroke="#444444" stroke-dasharray="5,2" d="M177.29,-205.5C325.37,-205.5 362.16,-163.45 505.25,-161.57"/>
<polygon fill="#444444" stroke="#444444" points="515.31,-165 505.29,-161.57 515.26,-158 515.31,-165"/>
</g>
</g>
</svg>
