<?xml version="1.0" encoding="UTF-8" standalone="no"?>
<!DOCTYPE svg PUBLIC "-//W3C//DTD SVG 1.1//EN"
 "http://www.w3.org/Graphics/SVG/1.1/DTD/svg11.dtd">
<!-- Generated by graphviz version 2.44.0 (20200408.0750)
 -->
<!-- Title: Database Structure Pages: 1 -->
<svg width="538pt" height="402pt"
 viewBox="0.00 0.00 538.00 402.00" xmlns="http://www.w3.org/2000/svg" xmlns:xlink="http://www.w3.org/1999/xlink">
<g id="graph0" class="graph" transform="scale(1 1) rotate(0) translate(4 398)">
<title>Database Structure</title>
<polygon fill="white" stroke="transparent" points="-4,4 -4,-398 534,-398 534,4 -4,4"/>
<text text-anchor="middle" x="265" y="-378.8" font-family="Helvetica,sans-Serif" font-size="14.00">ER Diagram: TodoList</text>
<!-- contact_info -->
<g id="node1" class="node">
<title>contact_info</title>
<polygon fill="#dddddd" stroke="transparent" points="389,-67 389,-88 490,-88 490,-67 389,-67"/>
<polygon fill="none" stroke="black" points="389,-67 389,-88 490,-88 490,-67 389,-67"/>
<text text-anchor="start" x="405.5" y="-73.8" font-family="Times,serif" font-size="14.00">contact_info</text>
<polygon fill="none" stroke="black" points="389,-46 389,-67 490,-67 490,-46 389,-46"/>
<text text-anchor="start" x="392" y="-53.8" font-family="Times,serif" font-size="14.00">contact_id:</text>
<text text-anchor="start" x="453" y="-53.8" font-family="Helvetica,sans-Serif" font-style="oblique" font-size="10.00">BIGINT</text>
<polygon fill="none" stroke="black" points="389,-25 389,-46 490,-46 490,-25 389,-25"/>
<text text-anchor="start" x="397.5" y="-32.8" font-family="Times,serif" font-size="14.00">email:</text>
<text text-anchor="start" x="432.5" y="-32.8" font-family="Helvetica,sans-Serif" font-style="oblique" font-size="10.00">VARCHAR</text>
<polygon fill="none" stroke="black" points="389,-4 389,-25 490,-25 490,-4 389,-4"/>
<text text-anchor="start" x="396.5" y="-11.8" font-family="Times,serif" font-size="14.00">phone:</text>
<text text-anchor="start" x="433.5" y="-11.8" font-family="Helvetica,sans-Serif" font-style="oblique" font-size="10.00">VARCHAR</text>
</g>
<!-- todo -->
<g id="node2" class="node">
<title>todo</title>
<polygon fill="#dddddd" stroke="transparent" points="46,-346 46,-367 165,-367 165,-346 46,-346"/>
<polygon fill="none" stroke="black" points="46,-346 46,-367 165,-367 165,-346 46,-346"/>
<text text-anchor="start" x="93" y="-352.8" font-family="Times,serif" font-size="14.00">todo</text>
<polygon fill="none" stroke="black" points="46,-325 46,-346 165,-346 165,-325 46,-325"/>
<text text-anchor="start" x="81" y="-332.8" font-family="Times,serif" font-size="14.00">id:</text>
<text text-anchor="start" x="96" y="-332.8" font-family="Helvetica,sans-Serif" font-style="oblique" font-size="10.00">BIGINT</text>
<polygon fill="none" stroke="black" points="46,-304 46,-325 165,-325 165,-304 46,-304"/>
<text text-anchor="start" x="49" y="-311.8" font-family="Times,serif" font-size="14.00">description:</text>
<text text-anchor="start" x="113" y="-311.8" font-family="Helvetica,sans-Serif" font-style="oblique" font-size="10.00">VARCHAR</text>
<polygon fill="none" stroke="black" points="46,-283 46,-304 165,-304 165,-283 46,-283"/>
<text text-anchor="start" x="62.5" y="-290.8" font-family="Times,serif" font-size="14.00">is_done:</text>
<text text-anchor="start" x="108.5" y="-290.8" font-family="Helvetica,sans-Serif" font-style="oblique" font-size="10.00">TINYINT</text>
<polygon fill="none" stroke="black" points="46,-262 46,-283 165,-283 165,-262 46,-262"/>
<text text-anchor="start" x="52.5" y="-269.8" font-family="Times,serif" font-size="14.00">username:</text>
<text text-anchor="start" x="109.5" y="-269.8" font-family="Helvetica,sans-Serif" font-style="oblique" font-size="10.00">VARCHAR</text>
<polygon fill="none" stroke="black" points="46,-241 46,-262 165,-262 165,-241 46,-241"/>
<text text-anchor="start" x="60" y="-248.8" font-family="Times,serif" font-size="14.00">target_date:</text>
<text text-anchor="start" x="124" y="-248.8" font-family="Helvetica,sans-Serif" font-style="oblique" font-size="10.00">DATE</text>
</g>
<!-- user -->
<g id="node3" class="node">
<title>user</title>
<polygon fill="#dddddd" stroke="transparent" points="47,-194 47,-215 164,-215 164,-194 47,-194"/>
<polygon fill="none" stroke="black" points="47,-194 47,-215 164,-215 164,-194 47,-194"/>
<text text-anchor="start" x="94" y="-200.8" font-family="Times,serif" font-size="14.00">user</text>
<polygon fill="none" stroke="black" points="47,-173 47,-194 164,-194 164,-173 47,-173"/>
<text text-anchor="start" x="66.5" y="-180.8" font-family="Times,serif" font-size="14.00">user_id:</text>
<text text-anchor="start" x="110.5" y="-180.8" font-family="Helvetica,sans-Serif" font-style="oblique" font-size="10.00">BIGINT</text>
<polygon fill="none" stroke="black" points="47,-152 47,-173 164,-173 164,-152 47,-152"/>
<text text-anchor="start" x="52.5" y="-159.8" font-family="Times,serif" font-size="14.00">username:</text>
<text text-anchor="start" x="109.5" y="-159.8" font-family="Helvetica,sans-Serif" font-style="oblique" font-size="10.00">VARCHAR</text>
<polygon fill="none" stroke="black" points="47,-131 47,-152 164,-152 164,-131 47,-131"/>
<text text-anchor="start" x="53.5" y="-138.8" font-family="Times,serif" font-size="14.00">password:</text>
<text text-anchor="start" x="108.5" y="-138.8" font-family="Helvetica,sans-Serif" font-style="oblique" font-size="10.00">VARCHAR</text>
<polygon fill="none" stroke="black" points="47,-110 47,-131 164,-131 164,-110 47,-110"/>
<text text-anchor="start" x="50" y="-117.8" font-family="Times,serif" font-size="14.00">first_name:</text>
<text text-anchor="start" x="112" y="-117.8" font-family="Helvetica,sans-Serif" font-style="oblique" font-size="10.00">VARCHAR</text>
<polygon fill="none" stroke="black" points="47,-89 47,-110 164,-110 164,-89 47,-89"/>
<text text-anchor="start" x="51" y="-96.8" font-family="Times,serif" font-size="14.00">last_name:</text>
<text text-anchor="start" x="111" y="-96.8" font-family="Helvetica,sans-Serif" font-style="oblique" font-size="10.00">VARCHAR</text>
<polygon fill="none" stroke="black" points="47,-68 47,-89 164,-89 164,-68 47,-68"/>
<text text-anchor="start" x="68.5" y="-75.8" font-family="Times,serif" font-size="14.00">role:</text>
<text text-anchor="start" x="93.5" y="-75.8" font-family="Helvetica,sans-Serif" font-style="oblique" font-size="10.00">VARCHAR</text>
<polygon fill="none" stroke="black" points="47,-47 47,-68 164,-68 164,-47 47,-47"/>
<text text-anchor="start" x="58" y="-54.8" font-family="Times,serif" font-size="14.00">contact_id:</text>
<text text-anchor="start" x="119" y="-54.8" font-family="Helvetica,sans-Serif" font-style="oblique" font-size="10.00">BIGINT</text>
</g>
<!-- user&#45;&gt;contact_info -->
<g id="edge1" class="edge">
<title>user:contact_id&#45;&gt;contact_info:contact_id</title>
<path fill="none" stroke="#444444" stroke-dasharray="5,2" d="M165,-57C260.63,-57 287.05,-57 377.82,-57"/>
<polygon fill="#444444" stroke="#444444" points="388,-60.5 378,-57 388,-53.5 388,-60.5"/>
</g>
</g>
</svg>
